<svg width="52" height="49" viewBox="0 0 52 49" fill="none" xmlns="http://www.w3.org/2000/svg">
<path id="Vector" d="M15.3333 15.2353H36.6667M15.3333 25.8235H31.3333M42 2C44.1217 2 46.1566 2.83666 47.6569 4.32592C49.1571 5.81518 50 7.83505 50 9.94118V31.1176C50 33.2238 49.1571 35.2436 47.6569 36.7329C46.1566 38.2222 44.1217 39.0588 42 39.0588H28.6667L15.3333 47V39.0588H10C7.87827 39.0588 5.84344 38.2222 4.34315 36.7329C2.84286 35.2436 2 33.2238 2 31.1176V9.94118C2 7.83505 2.84286 5.81518 4.34315 4.32592C5.84344 2.83666 7.87827 2 10 2H42Z" stroke="#046413" stroke-width="4" stroke-linecap="round" stroke-linejoin="round"/>
</svg>
