<svg width="19" height="18" viewBox="0 0 19 18" fill="none" xmlns="http://www.w3.org/2000/svg">
<g id="instaIcon" clip-path="url(#clip0_22_12)">
<path id="Vector" fill-rule="evenodd" clip-rule="evenodd" d="M9.54136 0.123047C7.16736 0.123047 6.86943 0.133427 5.93702 0.175859C5.00644 0.218473 4.37123 0.365801 3.81543 0.581966C3.24051 0.805234 2.75282 1.10389 2.26694 1.58995C1.78071 2.07582 1.48205 2.56351 1.25805 3.13825C1.04134 3.69424 0.893832 4.32962 0.851946 5.25984C0.810243 6.19225 0.799316 6.49036 0.799316 8.86436C0.799316 11.2383 0.809879 11.5354 0.852128 12.4678C0.894924 13.3984 1.04225 14.0336 1.25823 14.5894C1.48168 15.1643 1.78034 15.652 2.2664 16.1378C2.75209 16.6241 3.23978 16.9235 3.81434 17.1467C4.3705 17.3629 5.00589 17.5102 5.93629 17.5529C6.8687 17.5953 7.16645 17.6057 9.54026 17.6057C11.9144 17.6057 12.2114 17.5953 13.1439 17.5529C14.0744 17.5102 14.7104 17.3629 15.2665 17.1467C15.8413 16.9235 16.3282 16.6241 16.8139 16.1378C17.3002 15.652 17.5988 15.1643 17.8228 14.5895C18.0377 14.0336 18.1852 13.3982 18.2289 12.468C18.2708 11.5355 18.2817 11.2383 18.2817 8.86436C18.2817 6.49036 18.2708 6.19243 18.2289 5.26002C18.1852 4.32944 18.0377 3.69424 17.8228 3.13843C17.5988 2.56351 17.3002 2.07582 16.8139 1.58995C16.3277 1.10371 15.8415 0.805052 15.266 0.581966C14.7087 0.365801 14.0732 0.218473 13.1426 0.175859C12.2102 0.133427 11.9133 0.123047 9.53862 0.123047H9.54136Z" fill="white"/>
<path id="Vector_2" fill-rule="evenodd" clip-rule="evenodd" d="M8.75737 1.69946C8.99011 1.69909 9.2498 1.69946 9.54154 1.69946C11.8755 1.69946 12.1521 1.70784 13.0737 1.74972C13.926 1.78869 14.3886 1.9311 14.6967 2.05075C15.1046 2.20919 15.3955 2.39858 15.7012 2.70453C16.0072 3.01047 16.1966 3.30185 16.3554 3.70978C16.475 4.01755 16.6176 4.48011 16.6564 5.33238C16.6983 6.25386 16.7074 6.53067 16.7074 8.86351C16.7074 11.1963 16.6983 11.4731 16.6564 12.3946C16.6174 13.2469 16.475 13.7094 16.3554 14.0172C16.1969 14.4251 16.0072 14.7156 15.7012 15.0214C15.3953 15.3273 15.1048 15.5167 14.6967 15.6751C14.3889 15.7953 13.926 15.9374 13.0737 15.9763C12.1523 16.0182 11.8755 16.0273 9.54154 16.0273C7.20743 16.0273 6.9308 16.0182 6.00932 15.9763C5.15704 15.937 4.69448 15.7946 4.38617 15.675C3.97824 15.5165 3.68687 15.3271 3.38092 15.0212C3.07497 14.7152 2.88558 14.4246 2.72678 14.0165C2.60713 13.7087 2.46454 13.2461 2.42575 12.3939C2.38386 11.4724 2.37549 11.1956 2.37549 8.86132C2.37549 6.52703 2.38386 6.25168 2.42575 5.3302C2.46472 4.47792 2.60713 4.01536 2.72678 3.70723C2.88521 3.2993 3.07497 3.00792 3.38092 2.70198C3.68687 2.39603 3.97824 2.20664 4.38617 2.04784C4.6943 1.92764 5.15704 1.7856 6.00932 1.74644C6.81571 1.71002 7.12821 1.69909 8.75737 1.69727V1.69946Z" fill="#00D121"/>
<path id="Vector_3" fill-rule="evenodd" clip-rule="evenodd" d="M14.2076 3.15076C13.6285 3.15076 13.1587 3.62006 13.1587 4.19935C13.1587 4.77846 13.6285 5.24831 14.2076 5.24831C14.7867 5.24831 15.2566 4.77846 15.2566 4.19935C15.2566 3.62024 14.7867 3.15076 14.2076 3.15076Z" fill="white"/>
<path id="Vector_4" fill-rule="evenodd" clip-rule="evenodd" d="M9.54128 4.375C7.0622 4.375 5.05225 6.38496 5.05225 8.86403C5.05225 11.3431 7.0622 13.3522 9.54128 13.3522C12.0203 13.3522 14.0295 11.3431 14.0295 8.86403C14.0295 6.38496 12.0203 4.375 9.54128 4.375Z" fill="white"/>
<path id="Vector_5" fill-rule="evenodd" clip-rule="evenodd" d="M9.54121 5.95117C11.1503 5.95117 12.4549 7.25563 12.4549 8.86494C12.4549 10.474 11.1503 11.7787 9.54121 11.7787C7.9319 11.7787 6.62744 10.474 6.62744 8.86494C6.62744 7.25563 7.9319 5.95117 9.54121 5.95117Z" fill="#00D121"/>
</g>
<defs>
<clipPath id="clip0_22_12">
<rect width="19" height="18" fill="white"/>
</clipPath>
</defs>
</svg>
