<svg width="36" height="36" viewBox="0 0 36 36" fill="none" xmlns="http://www.w3.org/2000/svg">
<g id="tabler:edit" clip-path="url(#clip0_1152_2229)">
<g id="Group">
<path id="Vector" d="M7.48102 9.1543H5.59868C4.60022 9.1543 3.64265 9.55093 2.93664 10.2569C2.23062 10.963 1.83398 11.9205 1.83398 12.919V29.8601C1.83398 30.8586 2.23062 31.8161 2.93664 32.5221C3.64265 33.2282 4.60022 33.6248 5.59868 33.6248H22.5398C23.5383 33.6248 24.4958 33.2282 25.2018 32.5221C25.9079 31.8161 26.3045 30.8586 26.3045 29.8601V27.9778" stroke="black" stroke-width="3" stroke-linecap="round" stroke-linejoin="round"/>
<path id="Vector_2" d="M24.4206 5.38989L30.0676 11.0369M32.6747 8.37341C33.416 7.63206 33.8325 6.62656 33.8325 5.57813C33.8325 4.52969 33.416 3.5242 32.6747 2.78284C31.9333 2.04149 30.9278 1.625 29.8794 1.625C28.8309 1.625 27.8254 2.04149 27.0841 2.78284L11.2441 18.5663V24.2134H16.8912L32.6747 8.37341Z" stroke="black" stroke-width="3" stroke-linecap="round" stroke-linejoin="round"/>
</g>
</g>
<defs>
<clipPath id="clip0_1152_2229">
<rect width="36" height="36" fill="white"/>
</clipPath>
</defs>
</svg>
