<svg width="22" height="18" viewBox="0 0 22 18" fill="none" xmlns="http://www.w3.org/2000/svg">
<g id="twitterIcon" clip-path="url(#clip0_22_6)">
<path id="Vector" fill-rule="evenodd" clip-rule="evenodd" d="M10.4186 4.7737L10.4645 5.52987L9.70019 5.43728C6.91815 5.08234 4.48769 3.87864 2.42409 1.85703L1.41522 0.853946L1.15536 1.59468C0.605062 3.24592 0.956638 4.98975 2.10308 6.16259C2.71452 6.81073 2.57695 6.90333 1.52222 6.51752C1.15536 6.39407 0.834351 6.30147 0.803779 6.34777C0.696778 6.4558 1.06364 7.86012 1.35407 8.41567C1.75151 9.18728 2.56166 9.94345 3.44824 10.391L4.19725 10.7459L3.31067 10.7613C2.45466 10.7613 2.42409 10.7768 2.5158 11.1008C2.82152 12.1039 4.02911 13.1687 5.37427 13.6317L6.322 13.9558L5.49656 14.4496C4.27368 15.1595 2.83681 15.5607 1.39993 15.5916C0.712063 15.607 0.146484 15.6687 0.146484 15.715C0.146484 15.8694 2.01137 16.7336 3.09667 17.0731C6.35257 18.0762 10.2199 17.6441 13.1243 15.9311C15.1879 14.712 17.2515 12.2891 18.2145 9.94345C18.7342 8.69345 19.2539 6.4095 19.2539 5.31382C19.2539 4.60394 19.2998 4.51135 20.1558 3.66259C20.6602 3.16876 21.1341 2.62864 21.2258 2.47431C21.3786 2.1811 21.3634 2.1811 20.5838 2.44345C19.2845 2.90641 19.101 2.84469 19.7431 2.15024C20.2169 1.65641 20.7825 0.761353 20.7825 0.499008C20.7825 0.452712 20.5532 0.529872 20.2933 0.668761C20.0182 0.823082 19.4068 1.05456 18.9482 1.19345L18.1227 1.4558L17.3737 0.946539C16.961 0.668761 16.3802 0.360119 16.0744 0.267526C15.2949 0.0514768 14.1025 0.0823409 13.3994 0.329255C11.4887 1.0237 10.2811 2.81382 10.4186 4.7737Z" fill="white"/>
</g>
<defs>
<clipPath id="clip0_22_6">
<rect width="22" height="18" fill="white"/>
</clipPath>
</defs>
</svg>
