<svg width="22" height="22" viewBox="0 0 22 22" fill="none" xmlns="http://www.w3.org/2000/svg">
<path id="Vector" d="M11 20C12.78 20 14.5201 19.4722 16.0001 18.4832C17.4802 17.4943 18.6337 16.0887 19.3149 14.4442C19.9961 12.7996 20.1743 10.99 19.8271 9.24419C19.4798 7.49836 18.6226 5.89472 17.364 4.63604C16.1053 3.37737 14.5016 2.5202 12.7558 2.17294C11.01 1.82567 9.20038 2.0039 7.55585 2.68509C5.91131 3.36628 4.50571 4.51983 3.51677 5.99987C2.52784 7.47991 2 9.21997 2 11C2 12.488 2.36 13.891 3 15.127L2 20L6.873 19C8.109 19.64 9.513 20 11 20Z" stroke="black" stroke-width="2.5" stroke-linecap="round" stroke-linejoin="round"/>
</svg>
